<?xml version="1.0" encoding="UTF-8" standalone="no"?>
<svg
   xmlns:dc="http://purl.org/dc/elements/1.1/"
   xmlns:cc="http://creativecommons.org/ns#"
   xmlns:rdf="http://www.w3.org/1999/02/22-rdf-syntax-ns#"
   xmlns:svg="http://www.w3.org/2000/svg"
   xmlns="http://www.w3.org/2000/svg"
   viewBox="0 0 434.66666 589.33331"
   height="589.33331"
   width="434.66666"
   xml:space="preserve"
   id="svg2"
   version="1.1"><metadata
     id="metadata8"><rdf:RDF><cc:Work
         rdf:about=""><dc:format>image/svg+xml</dc:format><dc:type
           rdf:resource="http://purl.org/dc/dcmitype/StillImage" /></cc:Work></rdf:RDF></metadata><defs
     id="defs6" /><g
     transform="matrix(1.3333333,0,0,-1.3333333,0,589.33333)"
     id="g10"><g
       transform="scale(0.1)"
       id="g12"><path
         id="path14"
         style="fill:#231f20;fill-opacity:1;fill-rule:evenodd;stroke:none"
         d="m 826.566,4420.02 c 148.036,0 296.064,0 444.094,0 0,-380.61 0,-761.17 0,-1141.79 448.32,162.03 900.47,332.41 1351.93,495.95 0,-122.35 0,-244.7 0,-367.06 -451.84,-161.76 -900.38,-326.86 -1351.93,-488.93 0,-63.04 0,-126.08 0,-189.13 451.5,163.51 903.69,333.85 1351.93,495.94 0,-121.42 0,-242.83 0,-364.25 -447.95,-166.62 -901.26,-327.83 -1351.93,-491.73 0,-630.87 0,-1261.81 0,-1892.68 472.99,60.672 813.36,279.39 1073.15,558.98 130.63,140.59 235.64,306.65 318.01,498.73 82.2,191.66 134.83,415.56 137.3,679.46 153.62,0 307.26,0 460.91,0 0,-23.35 0,-46.68 0,-70.04 -15.61,-361.39 -101.2,-661.92 -229.77,-917.63 C 2901.92,970.531 2734.7,755.891 2535.72,572.988 2339.92,392.98 2102.81,243.43 1824.05,137.309 1551.35,33.4688 1203.42,-26.168 826.566,11.2109 c 0,731.7891 0,1463.4891 0,2195.3091 C 549.281,2108.81 275.984,2007.08 0,1908.11 c 0,117.66 0,235.36 0,353.02 276.422,100.92 553.652,201 826.566,305.42 0,62.58 0,125.15 0,187.73 C 551.586,2660.35 275.789,2555.06 0,2457.29 c 0,117.2 0,234.41 0,351.62 274.574,103.21 554.18,201.42 826.566,306.81 0,434.78 0,869.52 0,1304.3" /><path
         id="path16"
         style="fill:#ffffff;fill-opacity:1;fill-rule:evenodd;stroke:none"
         d="m 0,2261.13 c 0,65.4 0,130.76 0,196.16 275.789,97.77 551.586,203.06 826.566,296.99 0,-62.58 0,-125.15 0,-187.73 C 553.652,2462.13 276.422,2362.05 0,2261.13" /></g></g></svg>